<?xml version="1.0" encoding="UTF-8"?>
<svg width="1024px" height="1024px" viewBox="0 0 1024 1024" version="1.1" xmlns="http://www.w3.org/2000/svg" xmlns:xlink="http://www.w3.org/1999/xlink">
    <title>favicon</title>
    <g id="Page-1" stroke="none" stroke-width="1" fill="none" fill-rule="evenodd">
        <g id="favicon" fill-rule="nonzero">
            <rect id="Rectangle" fill="#FFFFFF" x="0" y="0" width="1024" height="1024"></rect>
            <g id="Group" transform="translate(0.5, 0.5)">
                <path d="M305.102339,-1.45093462e-14 L717.897661,1.45093462e-14 C823.988391,-8.430348e-15 862.459454,11.0462477 901.244639,31.7887918 C940.029824,52.5313358 970.468664,82.9701761 991.211208,121.755361 C1011.95375,160.540546 1023,199.011609 1023,305.102339 L1023,717.897661 C1023,823.988391 1011.95375,862.459454 991.211208,901.244639 C970.468664,940.029824 940.029824,970.468664 901.244639,991.211208 C862.459454,1011.95375 823.988391,1023 717.897661,1023 L305.102339,1023 C199.011609,1023 160.540546,1011.95375 121.755361,991.211208 C82.9701761,970.468664 52.5313358,940.029824 31.7887918,901.244639 C11.0462477,862.459454 0,823.988391 0,717.897661 L1.45093462e-14,305.102339 C-8.430348e-15,199.011609 11.0462477,160.540546 31.7887918,121.755361 C52.5313358,82.9701761 82.9701761,52.5313358 121.755361,31.7887918 C160.540546,11.0462477 199.011609,8.430348e-15 305.102339,-1.45093462e-14 Z" id="Rectangle" stroke="#282828" fill="#000000"></path>
                <text id="V" fill="#FFFFFF" font-family="Helvetica-Bold, Helvetica" font-size="360" font-weight="bold">
                    <tspan x="56.5" y="635.5">V</tspan>
                </text>
                <text id="een" fill="#FFFFFF" font-family="Helvetica" font-size="232" font-weight="normal">
                    <tspan x="267.517187" y="635.5">een</tspan>
                </text>
                <text id="A" fill="#FFFFFF" font-family="Helvetica-Bold, Helvetica" font-size="262" font-weight="bold">
                    <tspan x="712.85625" y="635.5">A</tspan>
                </text>
                <text id="I" fill="#FFFFFF" font-family="Helvetica-Bold, Helvetica" font-size="262" font-weight="bold">
                    <tspan x="892.864258" y="635.5">I</tspan>
                </text>
            </g>
        </g>
    </g>
</svg>